<?xml version="1.0" standalone="no"?>
<!DOCTYPE svg PUBLIC "-//W3C//DTD SVG 20010904//EN"
 "http://www.w3.org/TR/2001/REC-SVG-20010904/DTD/svg10.dtd">
<svg version="1.0" xmlns="http://www.w3.org/2000/svg"
 width="300.000000pt" height="111.000000pt" viewBox="0 0 300.000000 111.000000"
 preserveAspectRatio="xMidYMid meet">
<metadata>
Created by potrace 1.10, written by Peter Selinger 2001-2011
</metadata>
<g transform="translate(0.000000,111.000000) scale(0.100000,-0.100000)"
fill="#000000" stroke="none">
<path d="M760 1081 c-94 -19 -184 -84 -250 -181 -30 -44 -46 -59 -71 -64 -53
-10 -127 -64 -156 -113 -22 -39 -25 -52 -21 -108 5 -51 12 -73 43 -120 21 -31
46 -62 57 -68 12 -8 18 -24 18 -52 0 -128 77 -262 175 -306 116 -53 289 16
377 152 27 42 44 56 103 83 76 35 110 64 153 129 l27 41 5 -122 c6 -144 15
-161 82 -163 63 -2 81 1 105 17 19 12 26 12 52 -4 29 -16 33 -16 60 -1 21 13
32 14 40 6 18 -18 240 -18 269 1 20 13 24 13 41 -2 23 -21 64 -20 84 2 22 24
22 32 -9 97 l-26 55 22 51 c25 60 21 91 -16 108 -25 11 -26 13 -11 28 14 15
19 14 51 -1 38 -18 47 -16 84 18 22 19 24 20 33 4 27 -48 89 -40 108 14 l10
29 39 -40 c34 -35 45 -41 81 -41 24 0 55 7 70 16 25 15 31 15 57 1 30 -15 74
-8 74 13 0 16 81 12 101 -6 25 -23 50 -23 73 -2 18 16 20 32 20 147 1 113 -2
132 -18 150 -27 30 -76 28 -106 -4 l-24 -25 -26 25 c-27 26 -77 34 -96 15 -6
-6 -20 -6 -41 2 -26 10 -35 9 -58 -6 -24 -16 -29 -16 -43 -3 -24 22 -306 21
-340 0 -21 -13 -26 -13 -47 1 -34 22 -58 20 -84 -8 l-23 -25 -23 25 c-28 30
-82 32 -115 4 -22 -19 -23 -19 -48 0 -30 24 -38 24 -76 5 -26 -14 -31 -14 -46
0 -22 20 -49 19 -72 -2 -17 -15 -21 -15 -54 0 -19 9 -53 17 -76 17 -34 0 -46
-6 -74 -36 -31 -32 -34 -41 -34 -94 0 -96 -6 -99 -64 -34 -54 61 -93 141 -76
158 26 26 -5 116 -41 116 -5 0 -29 18 -53 40 -41 38 -111 71 -145 69 -9 -1
-32 -4 -51 -8z m130 -36 c35 -18 73 -61 66 -74 -4 -6 -25 3 -52 22 -152 107
-365 -58 -448 -347 -14 -48 -26 -99 -26 -112 0 -26 -17 -41 -31 -27 -16 16 28
183 73 275 51 107 106 177 173 224 86 59 176 73 245 39z m-2 -70 c21 -18 28
-31 25 -48 -6 -31 21 -84 46 -92 20 -6 31 -58 31 -151 0 -57 -5 -62 -34 -41
-15 11 -20 31 -24 93 -5 95 -13 105 -116 158 l-74 38 -76 -42 c-87 -48 -100
-37 -33 27 59 57 112 82 174 83 41 0 58 -5 81 -25z m140 -27 c21 -21 14 -66
-13 -84 -52 -34 -111 31 -70 76 20 22 65 26 83 8z m-202 -85 l83 -48 3 -89 3
-89 60 -36 60 -36 3 -87 c2 -78 1 -88 -17 -98 -19 -10 -20 -7 -23 64 l-3 75
-54 -33 -53 -33 0 -62 c1 -33 1 -63 1 -65 2 -11 130 28 169 50 57 34 95 93 95
147 0 50 -21 93 -71 149 l-37 41 -5 -44 c-3 -24 -9 -44 -15 -44 -13 0 -25 197
-13 210 12 13 28 -13 28 -47 0 -19 15 -42 50 -77 54 -54 100 -138 100 -184 0
-93 -94 -190 -217 -222 -86 -23 -136 -19 -185 11 -30 19 -46 24 -57 17 -9 -5
-32 -19 -51 -30 l-35 -21 -104 57 c-250 135 -330 296 -204 412 28 27 103 69
122 69 21 0 -3 -30 -42 -54 -69 -40 -90 -69 -95 -131 -4 -48 -1 -61 23 -97 28
-42 94 -108 108 -108 4 0 7 31 7 70 l0 69 60 33 60 33 0 90 0 90 78 47 c42 25
79 47 81 47 2 1 41 -20 87 -46z m541 -47 c24 -21 28 -32 31 -94 2 -39 -1 -86
-7 -103 -8 -24 -8 -36 0 -46 9 -11 8 -17 -7 -28 -16 -12 -21 -11 -37 3 -11 9
-30 15 -43 14 -16 -2 -34 6 -54 27 -28 27 -30 34 -30 105 0 41 5 86 11 100 22
48 92 60 136 22z m123 -78 c0 -110 7 -132 36 -126 17 3 19 15 22 116 l3 112
29 0 30 0 0 -105 c0 -57 -5 -115 -11 -129 -15 -31 -59 -50 -98 -41 -52 11 -61
36 -61 162 l0 113 25 0 25 0 0 -102z m301 -23 c15 -66 28 -126 28 -132 1 -8
-11 -13 -29 -13 -25 0 -30 4 -30 25 0 22 -4 25 -35 25 -31 0 -35 -3 -35 -25 0
-21 -5 -25 -30 -25 -16 0 -30 4 -30 9 0 9 46 208 56 244 4 14 14 17 41 15 l36
-3 28 -120z m139 48 c19 -43 37 -82 41 -87 5 -5 6 30 2 77 l-6 87 27 0 26 0 0
-136 0 -135 -26 3 c-22 3 -31 15 -60 83 l-33 80 -1 -82 c0 -82 0 -83 -25 -83
l-25 0 0 135 0 135 24 0 c20 0 28 -12 56 -77z m280 52 c0 -20 -5 -25 -25 -25
l-25 0 0 -110 0 -110 -25 0 -25 0 0 110 0 110 -30 0 c-25 0 -30 4 -30 25 0 25
1 25 80 25 79 0 80 0 80 -25z m81 -72 c-3 -112 2 -133 35 -133 28 0 28 -3 28
125 l1 100 28 3 27 3 0 -106 c0 -126 -13 -161 -63 -170 -40 -8 -82 7 -96 34
-6 11 -11 70 -11 131 l0 111 27 -3 27 -3 -3 -92z m244 40 c32 -116 29 -114 54
-25 24 82 24 82 57 82 l34 0 0 -135 0 -135 -26 0 -25 0 3 90 c2 50 1 90 -2 90
-3 0 -14 -33 -25 -72 -16 -59 -24 -73 -40 -73 -16 0 -24 15 -41 75 l-23 75 0
-92 c-1 -92 -1 -93 -26 -93 l-25 0 0 135 0 135 34 0 c33 0 35 -2 51 -57z
m-1975 -49 c0 -66 -10 -89 -52 -110 l-31 -16 7 42 c7 47 51 140 66 140 6 0 10
-25 10 -56z m-162 -81 c-31 -107 -28 -101 -44 -79 -28 39 -12 106 34 143 27
22 30 4 10 -64z m709 -59 c13 -21 23 -53 23 -70 0 -31 -37 -97 -55 -98 -6 -1
-11 30 -13 68 -2 39 -9 78 -17 89 -13 18 -13 23 2 39 22 24 34 19 60 -28z
m153 -63 c0 -4 -10 -17 -23 -29 l-23 -22 -3 46 -2 45 26 -17 c14 -9 25 -19 25
-23z m494 20 c32 -35 -9 -57 -49 -27 -16 12 -17 16 -6 30 18 21 34 20 55 -3z
m-286 -10 c11 -6 7 -13 -14 -30 -20 -16 -30 -18 -40 -10 -10 8 -11 15 -1 30
13 20 33 24 55 10z m169 -3 c37 -13 40 -20 19 -37 -14 -12 -26 -7 -75 25 -5 4
9 24 16 24 4 0 22 -5 40 -12z m233 -13 c0 -21 -27 -30 -45 -15 -19 16 -10 30
21 30 15 0 24 -6 24 -15z m-470 -55 c24 -24 26 -72 5 -90 -14 -12 -13 -15 5
-32 28 -26 26 -73 -5 -103 -20 -21 -34 -25 -87 -25 l-63 0 0 135 0 135 63 0
c49 0 66 -4 82 -20z m207 -2 c30 -28 32 -92 4 -122 -19 -21 -19 -22 5 -70 13
-28 24 -51 24 -53 0 -3 -14 -3 -32 -1 -29 3 -34 8 -47 51 -20 64 -41 62 -41
-3 0 -49 -1 -50 -29 -50 l-30 0 0 135 -1 135 62 0 c50 0 66 -4 85 -22z m113
-113 l0 -135 -25 0 -25 0 0 135 0 135 25 0 25 0 0 -135z m109 93 l19 -43 17
43 c15 36 21 42 46 42 l29 0 -32 -64 -31 -64 37 -71 37 -71 -31 0 c-27 0 -33
6 -52 48 l-21 47 -20 -47 c-18 -41 -25 -48 -49 -48 -15 0 -28 2 -28 5 0 3 15
36 34 73 l34 68 -33 62 -33 62 29 0 c25 0 33 -6 48 -42z m-851 -46 c-3 -34 -6
-37 -35 -40 -31 -3 -33 -2 -33 30 0 36 15 63 40 70 21 7 32 -16 28 -60z m-538
-58 c0 -39 40 -134 73 -171 87 -99 216 -81 344 46 58 58 83 73 83 51 0 -5 -27
-39 -61 -74 -156 -168 -327 -167 -426 1 -27 47 -53 132 -53 177 0 28 0 29 20
11 11 -10 20 -28 20 -41z m113 -39 c75 -40 103 -43 153 -16 36 19 36 19 85 -4
66 -30 66 -31 38 -61 -33 -36 -88 -70 -137 -85 -79 -23 -161 23 -202 114 -20
44 -26 87 -12 87 5 0 39 -16 75 -35z"/>
<path d="M687 836 l-58 -33 56 -32 57 -32 54 28 c30 15 54 30 54 33 0 3 -8 10
-17 16 -10 5 -34 20 -53 31 l-35 22 -58 -33z m103 -31 c0 -21 -45 -38 -69 -26
-27 15 -27 39 2 50 25 9 67 -6 67 -24z"/>
<path d="M618 703 c3 -38 9 -71 16 -75 6 -4 30 -19 54 -33 l42 -26 0 68 0 68
-53 30 c-28 16 -54 31 -57 33 -4 1 -4 -28 -2 -65z m72 -12 c15 -28 12 -61 -4
-61 -22 0 -46 29 -46 56 0 30 34 33 50 5z"/>
<path d="M813 736 l-52 -31 -1 -68 0 -67 53 30 52 29 5 71 c3 38 3 70 0 69 -3
-1 -28 -15 -57 -33z m37 -49 c0 -48 -61 -85 -65 -39 -2 30 21 62 46 62 13 0
19 -7 19 -23z"/>
<path d="M551 580 l-44 -28 54 -31 c30 -17 57 -31 60 -31 4 0 26 11 49 24 l41
23 -38 24 c-21 12 -47 28 -58 35 -17 10 -27 8 -64 -16z m79 -20 c11 -6 17 -17
14 -25 -8 -19 -24 -19 -52 1 -38 26 -5 47 38 24z"/>
<path d="M836 573 l-58 -36 43 -24 c41 -23 44 -24 79 -8 19 9 45 24 58 33 l22
17 -43 26 -44 27 -57 -35z m81 -19 c2 -6 -8 -16 -22 -22 -34 -16 -45 -15 -45
3 0 28 58 45 67 19z"/>
<path d="M490 463 l0 -59 55 -27 c31 -15 58 -27 60 -27 3 0 4 22 4 50 -2 46
-4 52 -38 72 -20 12 -46 28 -58 36 -23 14 -23 14 -23 -45z m66 -11 c17 -11 28
-52 14 -52 -23 0 -50 21 -50 40 0 20 16 26 36 12z"/>
<path d="M762 440 l3 -71 43 -25 42 -25 0 68 -1 68 -45 27 -45 28 3 -70z m56
-6 c11 -19 4 -54 -9 -54 -6 0 -13 10 -18 23 -15 39 8 65 27 31z"/>
<path d="M678 477 c-38 -22 -38 -22 -38 -89 l0 -68 45 28 45 27 0 62 c0 35 -3
63 -7 63 -5 -1 -25 -11 -45 -23z m20 -68 c-5 -35 -28 -36 -28 -1 0 16 3 32 7
35 11 12 25 -9 21 -34z"/>
<path d="M1284 777 c-2 -8 -4 -47 -2 -88 3 -71 4 -74 28 -74 25 0 25 1 25 85
0 81 -1 85 -23 88 -12 2 -24 -3 -28 -11z"/>
<path d="M1716 745 c-4 -22 -10 -50 -13 -62 -4 -19 -1 -23 21 -23 25 0 26 2
20 43 -12 74 -20 86 -28 42z"/>
<path d="M1310 416 c0 -32 3 -36 25 -36 47 0 44 61 -4 68 -18 3 -21 -1 -21
-32z"/>
<path d="M1310 302 c0 -37 1 -38 31 -34 27 4 30 8 27 36 -2 25 -8 32 -30 34
-26 3 -28 1 -28 -36z"/>
<path d="M1520 405 c0 -46 7 -53 41 -35 36 20 18 80 -23 80 -15 0 -18 -8 -18
-45z"/>
</g>
</svg>
